# xmcd CD database file
#
# Track frame offsets:
#	182
#	19237
#	33327
#	48320
#	67055
#	83030
#	94942
#	105452
#	126705
#	142912
#	158105
#	178350
#	187897
#	204082
#	223707
#	240012
#
# Disc length: 3369 seconds
#
# Revision: 3
# Processed by: cddbd v1.5.2PL0 Copyright (c) Steve Scherf et al.
# Submitted via: CDex 1.82
#
DISCID=d80d2710
DTITLE=Folk team - Vsechna ta smutna hudba
DYEAR=1991
DGENRE=Folk
TTITLE0=Pisnickar
TTITLE1=Vsechna ta smutna hudba
TTITLE2=Golem
TTITLE3=Zdravas Maria
TTITLE4=Zustala mi
TTITLE5=Mi kamaradi
TTITLE6=Delnici umeni
TTITLE7=Stejne bylas mila
TTITLE8=Proc ne ja
TTITLE9=Vanocni
TTITLE10=Folkarovo blues
TTITLE11=Jenom tak
TTITLE12=Mluvici kun
TTITLE13=Polocas
TTITLE14=Clovek je jak den
TTITLE15=Kava a caj
EXTD=YEAR: 1991
EXTT0=
EXTT1=
EXTT2=
EXTT3=
EXTT4=
EXTT5=
EXTT6=
EXTT7=
EXTT8=
EXTT9=
EXTT10=
EXTT11=
EXTT12=
EXTT13=
EXTT14=
EXTT15=
PLAYORDER=
